<mxfile host="app.diagrams.net" modified="2023-06-07T10:08:31.516Z" agent="Mozilla/5.0 (Windows NT 10.0; Win64; x64) AppleWebKit/537.36 (KHTML, like Gecko) Chrome/114.0.0.0 Safari/537.36" etag="JJvIEG1SYV5DIoF3lGwN" version="21.3.6" type="github">
  <diagram id="C5RBs43oDa-KdzZeNtuy" name="Page-1">
    <mxGraphModel dx="794" dy="513" grid="1" gridSize="10" guides="1" tooltips="1" connect="1" arrows="1" fold="1" page="1" pageScale="1" pageWidth="827" pageHeight="1169" math="0" shadow="0">
      <root>
        <mxCell id="WIyWlLk6GJQsqaUBKTNV-0" />
        <mxCell id="WIyWlLk6GJQsqaUBKTNV-1" parent="WIyWlLk6GJQsqaUBKTNV-0" />
        <mxCell id="SjAhcf1-tJMfVy4g-0Gp-2" value="" style="edgeStyle=orthogonalEdgeStyle;rounded=0;orthogonalLoop=1;jettySize=auto;html=1;" edge="1" parent="WIyWlLk6GJQsqaUBKTNV-1" source="SjAhcf1-tJMfVy4g-0Gp-0" target="SjAhcf1-tJMfVy4g-0Gp-1">
          <mxGeometry relative="1" as="geometry" />
        </mxCell>
        <mxCell id="SjAhcf1-tJMfVy4g-0Gp-0" value="START" style="ellipse;whiteSpace=wrap;html=1;" vertex="1" parent="WIyWlLk6GJQsqaUBKTNV-1">
          <mxGeometry x="350" y="260" width="120" height="80" as="geometry" />
        </mxCell>
        <mxCell id="SjAhcf1-tJMfVy4g-0Gp-4" value="" style="edgeStyle=orthogonalEdgeStyle;rounded=0;orthogonalLoop=1;jettySize=auto;html=1;" edge="1" parent="WIyWlLk6GJQsqaUBKTNV-1" source="SjAhcf1-tJMfVy4g-0Gp-1" target="SjAhcf1-tJMfVy4g-0Gp-3">
          <mxGeometry relative="1" as="geometry" />
        </mxCell>
        <mxCell id="SjAhcf1-tJMfVy4g-0Gp-1" value="number = 100" style="rounded=1;whiteSpace=wrap;html=1;" vertex="1" parent="WIyWlLk6GJQsqaUBKTNV-1">
          <mxGeometry x="350" y="430" width="120" height="60" as="geometry" />
        </mxCell>
        <mxCell id="SjAhcf1-tJMfVy4g-0Gp-6" value="" style="edgeStyle=orthogonalEdgeStyle;rounded=0;orthogonalLoop=1;jettySize=auto;html=1;" edge="1" parent="WIyWlLk6GJQsqaUBKTNV-1" source="SjAhcf1-tJMfVy4g-0Gp-3" target="SjAhcf1-tJMfVy4g-0Gp-5">
          <mxGeometry relative="1" as="geometry" />
        </mxCell>
        <mxCell id="SjAhcf1-tJMfVy4g-0Gp-8" value="" style="edgeStyle=orthogonalEdgeStyle;rounded=0;orthogonalLoop=1;jettySize=auto;html=1;entryX=0.5;entryY=0;entryDx=0;entryDy=0;" edge="1" parent="WIyWlLk6GJQsqaUBKTNV-1" source="SjAhcf1-tJMfVy4g-0Gp-3" target="SjAhcf1-tJMfVy4g-0Gp-11">
          <mxGeometry relative="1" as="geometry">
            <mxPoint x="410" y="730" as="targetPoint" />
          </mxGeometry>
        </mxCell>
        <mxCell id="SjAhcf1-tJMfVy4g-0Gp-3" value="number &amp;lt; 50?" style="rhombus;whiteSpace=wrap;html=1;rounded=1;" vertex="1" parent="WIyWlLk6GJQsqaUBKTNV-1">
          <mxGeometry x="365" y="560" width="90" height="80" as="geometry" />
        </mxCell>
        <mxCell id="SjAhcf1-tJMfVy4g-0Gp-5" value="STOP" style="ellipse;whiteSpace=wrap;html=1;rounded=1;" vertex="1" parent="WIyWlLk6GJQsqaUBKTNV-1">
          <mxGeometry x="550" y="570" width="80" height="60" as="geometry" />
        </mxCell>
        <mxCell id="SjAhcf1-tJMfVy4g-0Gp-14" value="" style="edgeStyle=orthogonalEdgeStyle;rounded=0;orthogonalLoop=1;jettySize=auto;html=1;" edge="1" parent="WIyWlLk6GJQsqaUBKTNV-1" source="SjAhcf1-tJMfVy4g-0Gp-11" target="SjAhcf1-tJMfVy4g-0Gp-13">
          <mxGeometry relative="1" as="geometry" />
        </mxCell>
        <mxCell id="SjAhcf1-tJMfVy4g-0Gp-24" value="" style="edgeStyle=orthogonalEdgeStyle;rounded=0;orthogonalLoop=1;jettySize=auto;html=1;" edge="1" parent="WIyWlLk6GJQsqaUBKTNV-1" source="SjAhcf1-tJMfVy4g-0Gp-11" target="SjAhcf1-tJMfVy4g-0Gp-23">
          <mxGeometry relative="1" as="geometry" />
        </mxCell>
        <mxCell id="SjAhcf1-tJMfVy4g-0Gp-11" value="number%2==0" style="rhombus;whiteSpace=wrap;html=1;rounded=1;" vertex="1" parent="WIyWlLk6GJQsqaUBKTNV-1">
          <mxGeometry x="345" y="720" width="130" height="100" as="geometry" />
        </mxCell>
        <mxCell id="SjAhcf1-tJMfVy4g-0Gp-13" value="number++" style="whiteSpace=wrap;html=1;rounded=1;" vertex="1" parent="WIyWlLk6GJQsqaUBKTNV-1">
          <mxGeometry x="140" y="740" width="120" height="60" as="geometry" />
        </mxCell>
        <mxCell id="SjAhcf1-tJMfVy4g-0Gp-19" value="" style="endArrow=classic;html=1;rounded=0;edgeStyle=orthogonalEdgeStyle;" edge="1" parent="WIyWlLk6GJQsqaUBKTNV-1">
          <mxGeometry width="50" height="50" relative="1" as="geometry">
            <mxPoint x="200" y="741" as="sourcePoint" />
            <mxPoint x="410" y="520" as="targetPoint" />
            <Array as="points">
              <mxPoint x="200" y="711" />
              <mxPoint x="200" y="711" />
            </Array>
          </mxGeometry>
        </mxCell>
        <mxCell id="SjAhcf1-tJMfVy4g-0Gp-22" value="TRUE" style="text;html=1;strokeColor=none;fillColor=none;align=center;verticalAlign=middle;whiteSpace=wrap;rounded=0;" vertex="1" parent="WIyWlLk6GJQsqaUBKTNV-1">
          <mxGeometry x="285" y="740" width="60" height="30" as="geometry" />
        </mxCell>
        <mxCell id="SjAhcf1-tJMfVy4g-0Gp-25" style="edgeStyle=orthogonalEdgeStyle;rounded=0;orthogonalLoop=1;jettySize=auto;html=1;entryX=0.5;entryY=1;entryDx=0;entryDy=0;" edge="1" parent="WIyWlLk6GJQsqaUBKTNV-1" source="SjAhcf1-tJMfVy4g-0Gp-23" target="SjAhcf1-tJMfVy4g-0Gp-13">
          <mxGeometry relative="1" as="geometry" />
        </mxCell>
        <mxCell id="SjAhcf1-tJMfVy4g-0Gp-23" value="Display number" style="shape=parallelogram;perimeter=parallelogramPerimeter;whiteSpace=wrap;html=1;fixedSize=1;rounded=1;" vertex="1" parent="WIyWlLk6GJQsqaUBKTNV-1">
          <mxGeometry x="350" y="920" width="120" height="60" as="geometry" />
        </mxCell>
        <mxCell id="SjAhcf1-tJMfVy4g-0Gp-26" value="TRUE" style="text;html=1;strokeColor=none;fillColor=none;align=center;verticalAlign=middle;whiteSpace=wrap;rounded=0;" vertex="1" parent="WIyWlLk6GJQsqaUBKTNV-1">
          <mxGeometry x="450" y="570" width="60" height="30" as="geometry" />
        </mxCell>
        <mxCell id="SjAhcf1-tJMfVy4g-0Gp-27" value="FALSE" style="text;html=1;strokeColor=none;fillColor=none;align=center;verticalAlign=middle;whiteSpace=wrap;rounded=0;" vertex="1" parent="WIyWlLk6GJQsqaUBKTNV-1">
          <mxGeometry x="414" y="660" width="60" height="30" as="geometry" />
        </mxCell>
        <mxCell id="SjAhcf1-tJMfVy4g-0Gp-28" value="FALSE" style="text;html=1;strokeColor=none;fillColor=none;align=center;verticalAlign=middle;whiteSpace=wrap;rounded=0;" vertex="1" parent="WIyWlLk6GJQsqaUBKTNV-1">
          <mxGeometry x="350" y="840" width="60" height="30" as="geometry" />
        </mxCell>
      </root>
    </mxGraphModel>
  </diagram>
</mxfile>
